<!-- <svg width="40" height="40" viewBox="0 0 32 32" fill="none" xmlns="http://www.w3.org/2000/svg">
<rect width="40" height="40" rx="7" fill="none"/>
<path d="M23.6129 11.869C23.3646 11.3076 23.0067 10.7988 22.5591 10.3712C22.1111 9.94231 21.583 9.60147 21.0033 9.36723C20.4023 9.12337 19.7577 8.99855 19.1068 9.00001C18.1938 9.00001 17.3029 9.24422 16.5288 9.70551C16.3435 9.81585 16.1676 9.93705 16.0009 10.0691C15.8342 9.93705 15.6583 9.81585 15.4731 9.70551C14.6989 9.24422 13.8081 9.00001 12.895 9.00001C12.2375 9.00001 11.6004 9.12302 10.9985 9.36723C10.4169 9.6024 9.89281 9.94067 9.44276 10.3712C8.99455 10.7983 8.63651 11.3072 8.38893 11.869C8.1315 12.4533 8 13.0738 8 13.7124C8 14.3147 8.12594 14.9424 8.37597 15.581C8.58525 16.1146 8.88529 16.6682 9.26866 17.2272C9.87614 18.1117 10.7114 19.0343 11.7486 19.9695C13.4673 21.5198 15.1693 22.5907 15.2416 22.6341L15.6805 22.9091C15.875 23.0303 16.125 23.0303 16.3195 22.9091L16.7584 22.6341C16.8306 22.5889 18.5308 21.5198 20.2514 19.9695C21.2886 19.0343 22.1238 18.1117 22.7313 17.2272C23.1147 16.6682 23.4166 16.1146 23.624 15.581C23.874 14.9424 24 14.3147 24 13.7124C24.0018 13.0738 23.8703 12.4533 23.6129 11.869V11.869Z" fill="red"/>
<defs>
<linearGradient id="paint0_linear" x1="16" y1="9" x2="16" y2="23" gradientUnits="userSpaceOnUse">
<stop stop-color="#FFB0B0"/>
<stop offset="1" stop-color="#FF4343"/>
</linearGradient>
</defs>
</svg>
 -->
 <svg width="22" height="22" viewBox="0 0 22 19" fill="none" xmlns="http://www.w3.org/2000/svg">
<path d="M15.1003 0C16.7293 0 18.0976 0.54932 19.2052 1.64796C20.3129 2.7466 20.8668 4.08759 20.8668 5.67092C20.8668 6.44643 20.7039 7.23002 20.3781 8.02169C20.0523 8.81335 19.6939 9.51616 19.303 10.1301C18.912 10.7441 18.2523 11.5357 17.3238 12.5051C16.3953 13.4745 15.6134 14.2581 14.9781 14.8559C14.3428 15.4537 13.3248 16.3665 11.9239 17.5944L10.4089 18.9515L8.89403 17.6429C7.52572 16.3827 6.51577 15.4537 5.8642 14.8559C5.21262 14.2581 4.42258 13.4745 3.49408 12.5051C2.56559 11.5357 1.90586 10.7441 1.51492 10.1301C1.12397 9.51616 0.773748 8.81335 0.464249 8.02169C0.15475 7.23002 0 6.44643 0 5.67092C0 4.08759 0.553841 2.7466 1.66152 1.64796C2.7692 0.54932 4.12123 0 5.71759 0C7.60717 0 9.17095 0.727041 10.4089 2.18112C11.6469 0.727041 13.2107 0 15.1003 0ZM10.5067 16.0918C12.1031 14.6701 13.2677 13.6118 14.0008 12.9171C14.7338 12.2224 15.5401 11.3903 16.4198 10.4209C17.2994 9.45153 17.9102 8.60332 18.2523 7.87628C18.5944 7.14924 18.7654 6.41412 18.7654 5.67092C18.7654 4.63691 18.4152 3.78061 17.7148 3.10204C17.0143 2.42347 16.1428 2.08418 15.1003 2.08418C14.3184 2.08418 13.5772 2.31037 12.8768 2.76276C12.1764 3.21514 11.6795 3.79677 11.3863 4.50765H9.43158C9.17095 3.79677 8.69041 3.21514 7.98997 2.76276C7.28952 2.31037 6.53206 2.08418 5.71759 2.08418C4.67507 2.08418 3.81173 2.42347 3.12757 3.10204C2.44342 3.78061 2.10134 4.63691 2.10134 5.67092C2.10134 6.41412 2.26423 7.14924 2.59002 7.87628C2.91581 8.60332 3.52666 9.45153 4.42258 10.4209C5.3185 11.3903 6.13297 12.2224 6.866 12.9171C7.59902 13.6118 8.74743 14.6701 10.3112 16.0918L10.4089 16.1888L10.5067 16.0918Z"  fill="red"/>
</svg>
